<svg width="436" height="90" viewBox="0 0 436 90" fill="none" xmlns="http://www.w3.org/2000/svg">
<path d="M432.558 30.3359C433.54 30.3359 434.222 30.4639 434.606 30.7199C434.99 30.9759 435.182 31.4026 435.182 31.9999C435.182 33.0239 434.628 36.6719 433.518 42.9439C432.537 48.9599 431.961 52.5226 431.79 53.6319C430.212 64.5973 428.036 73.2799 425.262 79.6799C422.489 86.0799 418.798 89.2799 414.19 89.2799C412.014 89.2799 410.244 88.5973 408.878 87.2319C407.513 85.9093 406.83 84.1599 406.83 81.9839C406.83 79.9786 407.278 77.9306 408.174 75.8399C409.113 73.7493 410.82 71.3386 413.294 68.6079C415.812 65.9199 419.353 62.8266 423.918 59.3279L424.11 57.8559C424.409 56.2773 424.75 54.0159 425.134 51.0719C424.281 54.1439 423.086 56.4906 421.55 58.1119C420.014 59.6906 418.393 60.4799 416.686 60.4799C414.766 60.4799 413.188 59.6053 411.95 57.8559C410.756 56.0639 410.158 53.8453 410.158 51.1999C410.158 47.9999 410.372 45.0773 410.798 42.4319C411.225 39.7439 411.929 36.9066 412.91 33.9199C413.337 32.6399 413.934 31.7226 414.702 31.1679C415.47 30.6133 416.686 30.3359 418.35 30.3359C419.289 30.3359 419.929 30.4853 420.27 30.7839C420.654 31.0826 420.846 31.5306 420.846 32.1279C420.846 32.4693 420.612 33.6213 420.142 35.5839C419.716 37.1626 419.374 38.5919 419.118 39.8719C418.777 41.6213 418.478 43.3066 418.222 44.9279C417.966 46.5066 417.838 47.8079 417.838 48.8319C417.838 50.4533 418.286 51.2639 419.182 51.2639C419.822 51.2639 420.612 50.6239 421.55 49.3439C422.532 48.0639 423.556 46.1226 424.622 43.5199C425.732 40.9173 426.798 37.7173 427.822 33.9199C428.164 32.6399 428.676 31.7226 429.358 31.1679C430.084 30.6133 431.15 30.3359 432.558 30.3359ZM414.894 83.0719C415.961 83.0719 417.156 81.8346 418.478 79.3599C419.801 76.8853 421.124 72.7679 422.446 67.0079C419.161 69.7813 416.772 72.2986 415.278 74.5599C413.828 76.8639 413.102 78.8693 413.102 80.5759C413.102 81.3013 413.23 81.8986 413.486 82.3679C413.785 82.8373 414.254 83.0719 414.894 83.0719Z" fill="white"/>
<path d="M387.968 60.48C385.323 60.48 383.211 59.52 381.632 57.6C380.053 55.68 379.264 53.1627 379.264 50.048C379.264 46.6347 380.053 43.4133 381.632 40.384C383.211 37.312 385.301 34.8587 387.904 33.024C390.549 31.1467 393.344 30.208 396.288 30.208C397.227 30.208 397.845 30.4 398.144 30.784C398.485 31.1253 398.763 31.7653 398.976 32.704C399.872 32.5333 400.811 32.448 401.792 32.448C403.883 32.448 404.928 33.1947 404.928 34.688C404.928 35.584 404.608 37.7173 403.968 41.088C402.987 45.9947 402.496 49.408 402.496 51.328C402.496 51.968 402.645 52.48 402.944 52.864C403.285 53.248 403.712 53.44 404.224 53.44C405.035 53.44 406.016 52.928 407.168 51.904C408.32 50.8373 409.877 49.1307 411.84 46.784C412.352 46.1867 412.928 45.888 413.568 45.888C414.123 45.888 414.549 46.144 414.848 46.656C415.189 47.168 415.36 47.872 415.36 48.768C415.36 50.4747 414.955 51.7973 414.144 52.736C412.395 54.912 410.539 56.7467 408.576 58.24C406.613 59.7333 404.715 60.48 402.88 60.48C401.472 60.48 400.171 60.0107 398.976 59.072C397.824 58.0907 396.949 56.768 396.352 55.104C394.133 58.688 391.339 60.48 387.968 60.48ZM390.272 54.016C391.211 54.016 392.107 53.4613 392.96 52.352C393.813 51.2427 394.432 49.7707 394.816 47.936L397.184 36.16C395.392 36.2027 393.728 36.8853 392.192 38.208C390.699 39.488 389.504 41.1947 388.608 43.328C387.712 45.4613 387.264 47.7227 387.264 50.112C387.264 51.4347 387.52 52.416 388.032 53.056C388.587 53.696 389.333 54.016 390.272 54.016Z" fill="white"/>
<path d="M384.157 45.8881C384.711 45.8881 385.138 46.1441 385.437 46.6561C385.778 47.1681 385.949 47.8721 385.949 48.7681C385.949 50.3468 385.544 51.6694 384.733 52.7361C382.728 55.3388 380.232 57.3868 377.245 58.8801C374.301 60.3734 370.973 61.1201 367.261 61.1201C364.359 61.1201 361.842 60.6934 359.709 59.8401C357.575 58.9441 355.933 57.7494 354.781 56.2561C353.671 54.7201 353.117 53.0134 353.117 51.1361C353.117 48.3201 354.247 45.8241 356.509 43.6481C358.77 41.4721 362.013 39.3815 366.237 37.3761L355.741 37.6321C354.802 37.6748 354.077 37.3548 353.565 36.6721C353.096 35.9468 352.861 35.0934 352.861 34.1121C352.861 33.0881 353.096 32.1921 353.565 31.4241C354.077 30.6134 354.759 30.2081 355.613 30.2081C357.575 30.2081 360.199 30.3574 363.485 30.6561C364.167 30.6988 365.405 30.7841 367.197 30.9121C369.032 31.0401 370.568 31.1041 371.805 31.1041C372.232 31.1041 373.042 30.9334 374.237 30.5921C374.45 30.5494 374.856 30.4428 375.453 30.2721C376.093 30.1014 376.626 30.0161 377.053 30.0161C377.735 30.0161 378.29 30.3148 378.717 30.9121C379.186 31.5094 379.421 32.4268 379.421 33.6641C379.421 35.0294 379.101 36.0961 378.461 36.8641C377.821 37.6321 376.818 38.3148 375.453 38.9121C371.57 40.5761 368.349 42.3681 365.789 44.2881C363.229 46.1654 361.949 48.0428 361.949 49.9201C361.949 51.1148 362.503 52.0961 363.613 52.8641C364.722 53.6321 366.365 54.0161 368.541 54.0161C370.93 54.0161 373.341 53.4188 375.773 52.2241C378.247 51.0295 380.466 49.2161 382.429 46.7841C382.941 46.1868 383.517 45.8881 384.157 45.8881Z" fill="white"/>
<path d="M326.265 60.4799C324.644 60.4799 323.492 59.6266 322.809 57.9199C322.169 56.2133 321.849 53.4826 321.849 49.7279C321.849 44.1813 322.638 38.9119 324.217 33.9199C324.601 32.6826 325.22 31.7866 326.073 31.2319C326.969 30.6346 328.206 30.3359 329.785 30.3359C330.638 30.3359 331.236 30.4426 331.577 30.6559C331.918 30.8693 332.089 31.2746 332.089 31.8719C332.089 32.5546 331.769 34.0906 331.129 36.4799C330.702 38.1866 330.361 39.6799 330.105 40.9599C329.849 42.2399 329.636 43.8186 329.465 45.6959C330.873 42.0266 332.452 39.0399 334.201 36.7359C335.95 34.4319 337.657 32.7893 339.321 31.8079C341.028 30.8266 342.585 30.3359 343.993 30.3359C346.766 30.3359 348.153 31.7226 348.153 34.4959C348.153 36.1599 347.684 39.1679 346.745 43.5199C345.934 47.2319 345.529 49.6853 345.529 50.8799C345.529 52.5866 346.148 53.4399 347.385 53.4399C348.238 53.4399 349.241 52.9279 350.393 51.9039C351.588 50.8373 353.166 49.1306 355.129 46.7839C355.641 46.1866 356.217 45.8879 356.857 45.8879C357.412 45.8879 357.838 46.1439 358.137 46.6559C358.478 47.1679 358.649 47.8719 358.649 48.7679C358.649 50.4746 358.244 51.7973 357.433 52.7359C355.598 54.9973 353.614 56.8533 351.481 58.3039C349.39 59.7546 347.001 60.4799 344.313 60.4799C342.137 60.4799 340.494 59.8613 339.385 58.6239C338.276 57.3439 337.721 55.5093 337.721 53.1199C337.721 51.9253 338.02 49.7919 338.617 46.7199C339.172 44.0319 339.449 42.1759 339.449 41.1519C339.449 40.4693 339.214 40.1279 338.745 40.1279C338.19 40.1279 337.401 40.8533 336.377 42.3039C335.396 43.7119 334.372 45.5893 333.305 47.9359C332.281 50.2826 331.449 52.7573 330.809 55.3599C330.34 57.3653 329.785 58.7306 329.145 59.4559C328.548 60.1386 327.588 60.4799 326.265 60.4799Z" fill="white"/>
<path d="M325.14 45.8879C325.695 45.8879 326.121 46.1439 326.42 46.6559C326.761 47.1679 326.932 47.8719 326.932 48.7679C326.932 50.4746 326.527 51.7973 325.716 52.7359C324.137 54.6559 321.897 56.4266 318.996 58.0479C316.137 59.6693 313.065 60.4799 309.78 60.4799C305.3 60.4799 301.823 59.2639 299.348 56.8319C296.873 54.3999 295.636 51.0719 295.636 46.8479C295.636 43.9039 296.255 41.1733 297.492 38.6559C298.729 36.0959 300.436 34.0693 302.612 32.5759C304.831 31.0826 307.327 30.3359 310.1 30.3359C312.575 30.3359 314.559 31.0826 316.052 32.5759C317.545 34.0266 318.292 36.0106 318.292 38.5279C318.292 41.4719 317.225 44.0106 315.092 46.1439C313.001 48.2346 309.439 49.8986 304.404 51.1359C305.471 53.0986 307.497 54.0799 310.484 54.0799C312.404 54.0799 314.58 53.4186 317.012 52.0959C319.487 50.7306 321.62 48.9599 323.412 46.7839C323.924 46.1866 324.5 45.8879 325.14 45.8879ZM309.012 36.6079C307.433 36.6079 306.089 37.5253 304.98 39.3599C303.913 41.1946 303.38 43.4133 303.38 46.0159V46.1439C305.897 45.5466 307.881 44.6506 309.332 43.4559C310.783 42.2613 311.508 40.8746 311.508 39.2959C311.508 38.4853 311.273 37.8453 310.804 37.3759C310.377 36.8639 309.78 36.6079 309.012 36.6079Z" fill="white"/>
<path d="M253.515 60.4799C251.894 60.4799 250.742 59.6266 250.059 57.9199C249.419 56.2133 249.099 53.4826 249.099 49.7279C249.099 44.1813 249.888 38.9119 251.467 33.9199C251.851 32.6826 252.47 31.7866 253.323 31.2319C254.219 30.6346 255.456 30.3359 257.035 30.3359C257.888 30.3359 258.486 30.4426 258.827 30.6559C259.168 30.8693 259.339 31.2746 259.339 31.8719C259.339 32.5546 259.019 34.0906 258.379 36.4799C257.952 38.1866 257.611 39.6799 257.355 40.9599C257.099 42.1973 256.886 43.7546 256.715 45.6319C257.867 42.3039 259.232 39.4879 260.811 37.1839C262.432 34.8799 264.075 33.1733 265.739 32.0639C267.446 30.9119 269.046 30.3359 270.539 30.3359C272.032 30.3359 273.078 30.6773 273.675 31.3599C274.315 32.0426 274.635 33.0879 274.635 34.4959C274.635 35.8613 274.23 38.3359 273.419 41.9199C273.078 43.4559 272.843 44.6079 272.715 45.3759C274.848 40.1279 277.216 36.3093 279.819 33.9199C282.422 31.5306 284.854 30.3359 287.115 30.3359C289.888 30.3359 291.275 31.7226 291.275 34.4959C291.275 36.1599 290.806 39.1679 289.867 43.5199C289.056 47.2319 288.651 49.6853 288.651 50.8799C288.651 52.5866 289.27 53.4399 290.507 53.4399C291.36 53.4399 292.363 52.9279 293.515 51.9039C294.71 50.8373 296.288 49.1306 298.251 46.7839C298.763 46.1866 299.339 45.8879 299.979 45.8879C300.534 45.8879 300.96 46.1439 301.259 46.6559C301.6 47.1679 301.771 47.8719 301.771 48.7679C301.771 50.4746 301.366 51.7973 300.555 52.7359C298.72 54.9973 296.736 56.8533 294.603 58.3039C292.512 59.7546 290.123 60.4799 287.435 60.4799C285.259 60.4799 283.616 59.8613 282.507 58.6239C281.398 57.3439 280.843 55.5093 280.843 53.1199C280.843 51.9253 281.142 49.7919 281.739 46.7199C282.294 44.0319 282.571 42.1759 282.571 41.1519C282.571 40.4693 282.336 40.1279 281.867 40.1279C281.312 40.1279 280.523 40.8533 279.499 42.3039C278.475 43.7119 277.451 45.5893 276.427 47.9359C275.403 50.2826 274.571 52.7573 273.931 55.3599C273.462 57.4079 272.907 58.7733 272.267 59.4559C271.67 60.1386 270.688 60.4799 269.323 60.4799C267.915 60.4799 266.848 59.8186 266.123 58.4959C265.44 57.1306 265.099 55.4879 265.099 53.5679C265.099 51.9466 265.312 49.5999 265.739 46.5279C266.08 43.7973 266.251 42.0053 266.251 41.1519C266.251 40.4693 266.016 40.1279 265.547 40.1279C264.907 40.1279 264.096 40.8959 263.115 42.4319C262.134 43.9679 261.174 45.9306 260.235 48.3199C259.339 50.7093 258.614 53.0559 258.059 55.3599C257.59 57.3653 257.035 58.7306 256.395 59.4559C255.798 60.1386 254.838 60.4799 253.515 60.4799Z" fill="white"/>
<path d="M241.605 26.1119C239.813 26.1119 238.469 25.7066 237.573 24.8959C236.677 24.0426 236.229 22.8693 236.229 21.3759C236.229 19.8826 236.805 18.6453 237.957 17.6639C239.152 16.6399 240.624 16.1279 242.373 16.1279C243.952 16.1279 245.232 16.5119 246.213 17.2799C247.194 18.0479 247.685 19.1359 247.685 20.5439C247.685 22.2506 247.13 23.6159 246.021 24.6399C244.912 25.6213 243.44 26.1119 241.605 26.1119ZM241.093 60.4799C238.32 60.4799 236.293 59.4986 235.013 57.5359C233.776 55.5733 233.157 52.9706 233.157 49.7279C233.157 47.8079 233.392 45.3546 233.861 42.3679C234.373 39.3386 235.013 36.5226 235.781 33.9199C236.165 32.5546 236.677 31.6159 237.317 31.1039C237.957 30.5919 238.981 30.3359 240.389 30.3359C242.565 30.3359 243.653 31.0613 243.653 32.5119C243.653 33.5786 243.248 36.0533 242.437 39.9359C241.413 44.6293 240.901 47.8079 240.901 49.4719C240.901 50.7519 241.072 51.7333 241.413 52.4159C241.754 53.0986 242.33 53.4399 243.141 53.4399C243.909 53.4399 244.869 52.9066 246.021 51.8399C247.173 50.7733 248.709 49.0879 250.629 46.7839C251.141 46.1866 251.717 45.8879 252.357 45.8879C252.912 45.8879 253.338 46.1439 253.637 46.6559C253.978 47.1679 254.149 47.8719 254.149 48.7679C254.149 50.4746 253.744 51.7973 252.933 52.7359C248.709 57.8986 244.762 60.4799 241.093 60.4799Z" fill="white"/>
<path d="M241.285 7.04015C242.608 7.29615 243.589 7.74415 244.229 8.38415C244.912 9.02415 245.253 9.77082 245.253 10.6241C245.253 12.0321 244.848 13.0561 244.037 13.6962C243.269 14.3362 242.032 14.5922 240.325 14.4641C236.485 14.1655 233.477 13.9735 231.301 13.8881C229.168 13.7602 226.352 13.6748 222.853 13.6321C221.275 21.4828 219.824 29.3762 218.501 37.3122C218.032 40.2135 217.541 43.5842 217.029 47.4242C216.517 51.2215 216.176 54.2935 216.005 56.6402C215.92 57.8775 215.408 58.8375 214.469 59.5202C213.531 60.1602 212.4 60.4802 211.077 60.4802C209.669 60.4802 208.581 60.1388 207.813 59.4562C207.045 58.7735 206.661 57.8775 206.661 56.7682C206.661 55.7442 206.811 54.0588 207.109 51.7122C207.451 49.3228 207.835 46.8268 208.261 44.2241C208.731 41.6215 209.093 39.3602 209.349 37.4402C209.819 34.1975 210.352 30.9762 210.949 27.7761C211.547 24.5762 212.144 21.5468 212.741 18.6882C212.869 18.0482 213.019 17.3228 213.189 16.5121C213.36 15.6588 213.552 14.7202 213.765 13.6962C209.584 13.8242 206.299 14.1655 203.909 14.7201C201.52 15.2748 199.813 16.0642 198.789 17.0882C197.808 18.0695 197.317 19.3495 197.317 20.9282C197.317 22.3788 197.744 23.7655 198.597 25.0882C198.768 25.3868 198.853 25.7068 198.853 26.0481C198.853 26.8588 198.363 27.6268 197.381 28.3522C196.443 29.0348 195.461 29.3761 194.437 29.3761C193.712 29.3761 193.115 29.1628 192.645 28.7361C191.792 28.0108 191.088 26.9868 190.533 25.6642C189.979 24.2988 189.701 22.7628 189.701 21.0562C189.701 17.4295 190.875 14.5281 193.221 12.3521C195.611 10.1335 199.216 8.51215 204.037 7.48815C208.901 6.46415 215.131 5.95215 222.725 5.95215C227.419 5.95215 231.152 6.03748 233.925 6.20815C236.741 6.37882 239.195 6.65615 241.285 7.04015Z" fill="white"/>
<path d="M151.643 60.48C149.211 60.48 147.227 59.52 145.691 57.6C144.198 55.68 143.451 53.1627 143.451 50.048C143.451 46.6347 144.241 43.4133 145.819 40.384C147.398 37.312 149.489 34.8587 152.091 33.024C154.737 31.1467 157.531 30.208 160.475 30.208C161.414 30.208 162.033 30.4 162.331 30.784C162.673 31.1253 162.95 31.7653 163.163 32.704C163.974 32.5333 164.87 32.448 165.851 32.448C166.875 32.448 167.665 32.704 168.219 33.216C168.774 33.728 169.051 34.4533 169.051 35.392C169.051 36.3733 168.838 38.08 168.411 40.512C167.942 43.1147 167.579 45.6107 167.323 48C167.067 50.3467 166.939 52.992 166.939 55.936C166.939 57.5573 166.598 58.7307 165.915 59.456C165.275 60.1387 164.209 60.48 162.715 60.48C161.265 60.48 160.177 60.1387 159.451 59.456C158.769 58.7307 158.427 57.5787 158.427 56L158.491 54.976C157.169 58.6453 154.886 60.48 151.643 60.48ZM154.139 54.016C155.334 54.016 156.422 53.184 157.403 51.52C158.385 49.856 159.259 46.8907 160.027 42.624L161.243 36.16C159.494 36.2027 157.873 36.8853 156.379 38.208C154.886 39.488 153.691 41.1947 152.795 43.328C151.899 45.4613 151.451 47.7227 151.451 50.112C151.451 51.392 151.686 52.3733 152.155 53.056C152.667 53.696 153.329 54.016 154.139 54.016Z" fill="white"/>
<path d="M128.875 61.8883C126.656 61.8883 124.949 61.3763 123.755 60.3523C122.603 59.3283 122.027 58.1763 122.027 56.8963C122.027 55.787 122.432 54.827 123.243 54.0163C124.053 53.2057 125.248 52.8003 126.827 52.8003C127.381 52.8003 128.021 52.8643 128.747 52.9923C129.515 53.0777 130.091 53.1417 130.475 53.1843C130.432 52.075 130.176 51.0297 129.707 50.0483C129.28 49.067 128.725 48.1283 128.043 47.2323C127.36 46.2937 126.72 45.483 126.123 44.8003C124.8 47.3177 123.477 49.4083 122.155 51.0723C120.875 52.7363 119.467 54.315 117.931 55.8083C117.163 56.5763 116.352 56.9603 115.499 56.9603C114.816 56.9603 114.261 56.7257 113.835 56.2563C113.408 55.7443 113.195 55.1257 113.195 54.4003C113.195 53.547 113.493 52.7577 114.091 52.0323L114.923 51.0083C117.269 48.107 119.04 45.7177 120.235 43.8403C120.96 42.603 121.813 40.9603 122.795 38.9123C123.776 36.8217 124.736 34.667 125.675 32.4483C126.485 30.571 128.171 29.6323 130.731 29.6323C131.925 29.6323 132.757 29.739 133.227 29.9523C133.696 30.1657 133.931 30.507 133.931 30.9763C133.931 31.2323 133.845 31.6377 133.675 32.1923C133.504 32.747 133.269 33.3017 132.971 33.8563C132.203 35.3923 131.819 36.6937 131.819 37.7603C131.819 38.4003 132.032 39.1043 132.459 39.8723C132.928 40.6403 133.632 41.6003 134.571 42.7523C135.936 44.5443 136.96 46.0803 137.643 47.3603C138.368 48.5977 138.731 49.963 138.731 51.4563C138.731 51.883 138.688 52.4803 138.603 53.2483C140.693 52.4377 143.147 50.283 145.963 46.7843C146.475 46.187 147.051 45.8883 147.691 45.8883C148.245 45.8883 148.672 46.1443 148.971 46.6563C149.312 47.1683 149.483 47.8723 149.483 48.7683C149.483 50.3897 149.077 51.7123 148.267 52.7363C146.133 55.3817 144.085 57.195 142.123 58.1763C140.203 59.115 137.813 59.627 134.955 59.7123C133.248 61.163 131.221 61.8883 128.875 61.8883Z" fill="white"/>
<path d="M114.945 42.24C116.139 42.24 116.737 43.136 116.737 44.928C116.737 48.2987 114.091 49.984 108.801 49.984C107.777 49.984 106.305 49.792 104.385 49.408C104.939 52.0533 105.387 54.9973 105.729 58.24C106.113 61.44 106.305 64.0853 106.305 66.176C106.305 70.784 105.558 74.304 104.065 76.736C102.571 79.168 100.609 80.384 98.1765 80.384C95.1045 80.384 92.9072 78.208 91.5845 73.856C90.3045 69.504 89.6646 62.9333 89.6646 54.144C89.6646 45.952 90.5392 37.6533 92.2885 29.248C94.0805 20.8 96.5125 13.824 99.5845 8.32C102.699 2.77333 106.113 0 109.825 0C111.83 0 113.387 0.896 114.497 2.688C115.649 4.48 116.225 6.89067 116.225 9.92C116.225 19.9467 110.23 30.8693 98.2406 42.688C97.8139 46.8693 97.6006 50.5387 97.6006 53.696C97.6006 58.0907 97.7499 62.592 98.0486 67.2C98.3472 71.8507 98.8379 74.176 99.5206 74.176C100.801 74.176 101.441 71.9573 101.441 67.52C101.441 64.192 101.206 60.9707 100.737 57.856C100.31 54.7413 99.7125 51.456 98.9445 48C98.9019 47.4453 99.0725 46.7413 99.4565 45.888C99.8832 45.0347 100.395 44.288 100.993 43.648C101.59 43.008 102.123 42.688 102.593 42.688C103.446 42.688 104.47 42.7307 105.665 42.816C106.049 42.8587 106.497 42.88 107.009 42.88C108.715 42.88 110.614 42.7307 112.705 42.432C113.046 42.3893 113.409 42.3467 113.793 42.304C114.177 42.2613 114.561 42.24 114.945 42.24ZM108.481 6.336C107.713 6.336 106.753 7.63734 105.601 10.24C104.491 12.8427 103.382 16.2987 102.273 20.608C101.163 24.8747 100.203 29.3973 99.3925 34.176C102.806 30.2933 105.43 26.2613 107.265 22.08C109.099 17.856 110.038 13.9093 110.081 10.24C110.081 7.63734 109.547 6.336 108.481 6.336Z" fill="white"/>
<path d="M67.8429 60.48C65.1976 60.48 63.0856 59.52 61.5069 57.6C59.9282 55.68 59.1389 53.1627 59.1389 50.048C59.1389 46.6347 59.9282 43.4133 61.5069 40.384C63.0856 37.312 65.1762 34.8587 67.7789 33.024C70.4242 31.1467 73.2189 30.208 76.1629 30.208C77.1016 30.208 77.7202 30.4 78.0189 30.784C78.3602 31.1253 78.6376 31.7653 78.8509 32.704C79.7469 32.5333 80.6856 32.448 81.6669 32.448C83.7576 32.448 84.8029 33.1947 84.8029 34.688C84.8029 35.584 84.4829 37.7173 83.8429 41.088C82.8616 45.9947 82.3709 49.408 82.3709 51.328C82.3709 51.968 82.5202 52.48 82.8189 52.864C83.1602 53.248 83.5869 53.44 84.0989 53.44C84.9096 53.44 85.8909 52.928 87.0429 51.904C88.1949 50.8373 89.7523 49.1307 91.7149 46.784C92.2269 46.1867 92.8029 45.888 93.4429 45.888C93.9976 45.888 94.4243 46.144 94.7229 46.656C95.0642 47.168 95.2349 47.872 95.2349 48.768C95.2349 50.4747 94.8296 51.7973 94.0189 52.736C92.2696 54.912 90.4136 56.7467 88.4509 58.24C86.4882 59.7333 84.5896 60.48 82.7549 60.48C81.3469 60.48 80.0456 60.0107 78.8509 59.072C77.6989 58.0907 76.8242 56.768 76.2269 55.104C74.0082 58.688 71.2136 60.48 67.8429 60.48ZM70.1469 54.016C71.0856 54.016 71.9816 53.4613 72.8349 52.352C73.6882 51.2427 74.3069 49.7707 74.6909 47.936L77.0589 36.16C75.2669 36.2027 73.6029 36.8853 72.0669 38.208C70.5736 39.488 69.3789 41.1947 68.4829 43.328C67.5869 45.4613 67.1389 47.7227 67.1389 50.112C67.1389 51.4347 67.3949 52.416 67.9069 53.056C68.4616 53.696 69.2082 54.016 70.1469 54.016Z" fill="white"/>
<path d="M63.36 45.8882C63.9147 45.8882 64.3413 46.1442 64.64 46.6562C64.9813 47.1682 65.152 47.8722 65.152 48.7682C65.152 50.4322 64.7467 51.7549 63.936 52.7362C59.712 57.8989 55.2107 60.4802 50.432 60.4802C46.2933 60.4802 42.9867 58.8802 40.512 55.6802C38.0373 52.4802 36.8 47.8936 36.8 41.9202C36.8 40.4696 36.864 39.0189 36.992 37.5682C34.176 38.0802 31.104 38.4642 27.776 38.7202C25.5573 38.8909 24.0427 38.9976 23.232 39.0402C22.3787 43.3922 21.184 48.7256 19.648 55.0402C18.752 58.7522 17.0453 60.6082 14.528 60.6082C11.7973 60.6082 10.432 59.3709 10.432 56.8962C10.432 56.3416 10.5387 55.5736 10.752 54.5922C12.2027 48.7469 13.3547 43.7976 14.208 39.7442L11.136 39.8722C9.728 39.8722 8.704 39.6376 8.064 39.1682C7.424 38.6562 7.104 37.8456 7.104 36.7362C7.104 35.3282 7.50933 34.3042 8.32 33.6642C9.13067 32.9816 10.4747 32.5976 12.352 32.5122L15.744 32.3842C16.8533 26.3682 17.408 21.7816 17.408 18.6242C17.408 16.6189 17.1093 15.2536 16.512 14.5282C15.9147 13.8029 15.1253 13.4402 14.144 13.4402C11.1573 13.4402 7.78667 15.9362 4.03201 20.9282C3.47734 21.6536 2.85867 22.0162 2.176 22.0162C1.57867 22.0162 1.06667 21.7389 0.639999 21.1842C0.213333 20.6296 0 19.9256 0 19.0722C0 17.7496 0.533332 16.3416 1.6 14.8482C3.47733 12.2456 5.84534 10.1122 8.704 8.44823C11.5627 6.74156 14.464 5.88823 17.408 5.88823C20.1813 5.88823 22.3147 6.84823 23.808 8.76823C25.344 10.6456 26.112 13.5896 26.112 17.6002C26.112 21.1416 25.6 25.9416 24.576 32.0002L30.848 31.6802C33.536 31.5522 35.84 31.3389 37.76 31.0402C38.528 26.3469 39.7013 21.9522 41.28 17.8562C42.8587 13.7602 44.8213 10.4322 47.168 7.87223C49.5147 5.31223 52.1387 4.03223 55.04 4.03223C57.1733 4.03223 58.8587 4.88556 60.096 6.59223C61.3333 8.25623 61.952 10.4536 61.952 13.1842C61.952 23.7656 56.5547 31.1042 45.76 35.2002C45.632 36.9069 45.568 38.6776 45.568 40.5122C45.568 44.9922 46.1227 48.1709 47.232 50.0482C48.3413 51.9256 49.8987 52.8642 51.904 52.8642C53.6533 52.8642 55.2533 52.4162 56.704 51.5202C58.1547 50.5816 59.7973 49.0029 61.632 46.7842C62.144 46.1869 62.72 45.8882 63.36 45.8882ZM54.72 9.60023C53.7813 9.60023 52.7787 10.4536 51.712 12.1602C50.688 13.8669 49.7067 16.1922 48.768 19.1362C47.8293 22.0802 47.0827 25.3016 46.528 28.8002C49.9413 27.3922 52.4587 25.3869 54.08 22.7842C55.7013 20.1816 56.512 16.8322 56.512 12.7362C56.512 11.7549 56.3413 10.9869 56 10.4322C55.6587 9.87756 55.232 9.60023 54.72 9.60023Z" fill="white"/>
</svg>
