<?xml version="1.0" standalone="no"?>
<!DOCTYPE svg PUBLIC "-//W3C//DTD SVG 20010904//EN"
 "http://www.w3.org/TR/2001/REC-SVG-20010904/DTD/svg10.dtd">
<svg version="1.0" xmlns="http://www.w3.org/2000/svg"
 width="438.000000pt" height="438.000000pt" viewBox="0 0 438.000000 438.000000"
 preserveAspectRatio="xMidYMid meet">

<g transform="translate(0.000000,438.000000) scale(0.100000,-0.100000)"
fill="#000000" stroke="none">
<path d="M135 4361 c-22 -10 -54 -34 -72 -52 -68 -72 -63 102 -63 -2123 l0
-2014 28 -53 c20 -39 41 -62 77 -84 l48 -30 2037 0 2037 0 48 30 c36 22 57 45
77 84 l28 53 0 2017 c0 1943 -1 2017 -19 2056 -10 22 -34 54 -52 72 -72 68
102 63 -2121 63 -1940 0 -2014 -1 -2053 -19z m1095 -1666 l0 -405 75 0 75 0 0
405 0 405 425 0 425 0 0 -895 0 -895 -425 0 -425 0 -2 303 -3 302 -72 3 -73 3
-2 -303 -3 -303 -422 -3 -423 -2 0 895 0 895 425 0 425 0 0 -405z m2740 30 l0
-375 -155 0 -155 0 -2 -517 -3 -518 -482 -3 -483 -2 0 520 0 520 -155 0 -155
0 0 375 0 375 795 0 795 0 0 -375z"/>
</g>
</svg>
